HIERARCHY
ROOT Hips
{
	OFFSET 0.000000 88.474243 0.000000
	CHANNELS 6 Xposition Yposition Zposition Zrotation Yrotation Xrotation 
	JOINT Hips_Spine
	{
		OFFSET 0.000000 0.000000 0.000000
		CHANNELS 3 Zrotation Yrotation Xrotation
		JOINT Spine
		{
			OFFSET 0.005100 8.711998 -0.691000
			CHANNELS 3 Zrotation Yrotation Xrotation
			JOINT Spine1
			{
				OFFSET -0.009200 8.660301 -1.275000
				CHANNELS 3 Zrotation Yrotation Xrotation
				JOINT Spine2
				{
					OFFSET 0.006300 9.852501 -1.857000
					CHANNELS 3 Zrotation Yrotation Xrotation
					JOINT Spine2_Neck
					{
						OFFSET 0.000000 0.000000 0.000000
						CHANNELS 3 Zrotation Yrotation Xrotation
						JOINT Neck
						{
							OFFSET 0.016300 11.420799 -0.263300
							CHANNELS 3 Zrotation Yrotation Xrotation
							End Site #name: Head
							{
								OFFSET -0.019200 9.262405 2.362500
							}
						}
					}
					JOINT Spine2_LeftShoulder
					{
						OFFSET 0.000000 0.000000 0.000000
						CHANNELS 3 Zrotation Yrotation Xrotation
						JOINT LeftShoulder
						{
							OFFSET 5.616900 6.732201 -0.345700
							CHANNELS 3 Zrotation Yrotation Xrotation
							JOINT LeftArm
							{
								OFFSET 10.664888 -0.183372 -2.440700
								CHANNELS 3 Zrotation Yrotation Xrotation
								JOINT LeftForeArm
								{
									OFFSET 27.459126 0.000000 0.000000
									CHANNELS 3 Zrotation Yrotation Xrotation
									End Site #name: LeftHand
									{
										OFFSET 21.306858 0.000000 0.000000
									}
								}
							}
						}
					}
					JOINT Spine2_RightShoulder
					{
						OFFSET 0.000000 0.000000 0.000000
						CHANNELS 3 Zrotation Yrotation Xrotation
						JOINT RightShoulder
						{
							OFFSET -5.580300 6.737503 -0.344400
							CHANNELS 3 Zrotation Yrotation Xrotation
							JOINT RightArm
							{
								OFFSET -10.679335 -0.188484 -2.383900
								CHANNELS 3 Zrotation Yrotation Xrotation
								JOINT RightForeArm
								{
									OFFSET -27.503529 0.000000 0.000000
									CHANNELS 3 Zrotation Yrotation Xrotation
									End Site #name: RightHand
									{
										OFFSET -21.306808 0.000000 0.000000
									}
								}
							}
						}
					}
				}
			}
		}
	}
	JOINT Hips_LeftUpLeg
	{
		OFFSET 0.000000 0.000000 0.000000
		CHANNELS 3 Zrotation Yrotation Xrotation
		JOINT LeftUpLeg
		{
			OFFSET 6.857700 -6.739601 0.312100
			CHANNELS 3 Zrotation Yrotation Xrotation
			JOINT LeftLeg
			{
				OFFSET -0.367590 -34.731552 -4.572400
				CHANNELS 3 Zrotation Yrotation Xrotation
				End Site #name: LeftFoot
				{
					OFFSET 0.367590 -34.656704 -6.067400
				}
			}
		}
	}
	JOINT Hips_RightUpLeg
	{
		OFFSET 0.000000 0.000000 0.000000
		CHANNELS 3 Zrotation Yrotation Xrotation
		JOINT RightUpLeg
		{
			OFFSET -6.876100 -6.733299 0.301000
			CHANNELS 3 Zrotation Yrotation Xrotation
			JOINT RightLeg
			{
				OFFSET 0.347353 -34.795158 -4.515900
				CHANNELS 3 Zrotation Yrotation Xrotation
				End Site #name: RightFoot
				{
					OFFSET -0.347353 -34.589367 -6.070300
				}
			}
		}
	}
}
MOTION
Frames: 6
Frame Time: 0.041667
0.173328 0.051541 0.044154 0.599073 13.693498 -6.901200 0.000000 0.000000 0.000000 -1.563555 -0.453356 1.892975 -0.846418 -1.133117 0.780658 0.000000 0.000000 0.000000 -0.555472 -0.788811 -0.391818 2.753181 -0.183833 -5.445963 -0.080155 -1.645133 -1.258549 -16.114612 -11.529017 2.386497 -45.481142 -5.706457 19.621939 1.294284 -20.637750 3.850956 -0.887482 -0.754594 0.790866 13.933991 10.599951 4.744782 57.036818 -1.172311 0.524600 0.042623 41.919856 0.859797 0.000000 0.000000 0.000000 -8.073999 13.140012 -5.169940 0.178515 0.756909 21.989064 0.000000 0.000000 0.000000 -3.738738 4.680728 -6.140352 3.647982 -2.803330 -3.972866 
0.578480 0.012361 0.206133 2.238969 17.409607 -7.567294 0.000000 0.000000 0.000000 -3.985948 -0.627659 0.532917 -0.395284 -1.007722 0.320943 0.000000 0.000000 0.000000 -0.822002 -0.813518 -1.085391 4.504059 -0.691220 -4.852628 -0.590581 -1.166267 -1.808994 -22.466411 -7.010048 0.737423 -40.429425 -3.340837 16.295552 -0.071214 -15.240252 1.610527 -0.843208 -0.879599 0.019139 15.686114 8.288097 1.995642 59.601327 1.588570 -0.137458 0.071721 35.951071 -0.175729 0.000000 0.000000 -0.000000 -10.463178 11.750704 -3.598708 -0.857779 2.319314 21.213721 0.000000 0.000000 0.000000 -7.468139 5.470945 -5.188001 3.990097 -3.535059 -3.289575 
0.838263 -0.003288 0.254308 3.351885 19.178620 -7.572708 0.000000 0.000000 0.000000 -4.602826 -0.808670 0.912069 -0.316436 -0.664127 -0.216081 0.000000 0.000000 0.000000 -0.276516 -1.046551 -1.424774 4.657164 -0.685920 -5.168168 -0.630406 -1.085450 -2.015276 -27.239863 -5.424873 -0.439470 -39.240732 4.325196 11.236301 -0.647463 -13.214760 1.849562 -0.527628 -0.903783 -0.251674 14.884166 6.975233 1.622431 59.722247 3.869223 -0.496568 0.299490 31.015263 -0.278445 0.000000 0.000000 -0.000000 -12.196122 11.252815 -2.899599 -1.630769 2.585119 20.399853 0.000000 0.000000 0.000000 -9.885984 4.483069 -6.645077 3.982947 -5.469981 0.202523 
1.114636 -0.030636 0.250945 3.830944 19.552919 -7.184187 -0.000000 0.000000 0.000000 -4.899337 -0.802524 1.476220 -0.144279 -0.734908 -0.405571 0.000000 0.000000 0.000000 0.129775 -1.121288 -1.426550 4.482435 -1.271504 -4.032178 -0.382978 -1.180563 -2.012789 -30.489988 -4.226622 -0.636995 -37.052907 5.280382 11.708162 -0.121452 -12.036604 3.236385 -0.112786 -0.981474 -0.219470 13.907840 6.768259 1.660218 59.593694 6.946024 -1.292668 0.387640 32.544920 -0.250904 0.000000 0.000000 -0.000000 -13.391007 10.955292 -3.039728 -1.908809 2.712968 19.835274 0.000000 0.000000 0.000000 -11.181617 3.341620 -8.577987 3.256963 -6.363326 4.322447 
1.421611 -0.046918 0.212072 4.037672 19.896266 -6.800742 -0.000000 0.000000 0.000000 -5.066669 -0.523668 1.335369 -0.106213 -0.726177 -0.394036 0.000000 0.000000 0.000000 0.267690 -1.113115 -1.348464 4.284635 -1.804837 -3.044113 -0.231339 -1.229608 -1.900949 -33.164283 -3.245852 -0.405350 -34.508088 4.821063 13.880855 0.404945 -8.912759 4.754786 0.010829 -0.997153 -0.093321 13.101504 6.723681 1.671860 60.069829 8.918206 -1.700227 0.453968 34.438658 -0.299129 0.000000 0.000000 -0.000000 -14.260652 10.705636 -3.474003 -1.843432 2.769585 19.719811 0.000000 0.000000 0.000000 -12.148082 2.521188 -9.939840 2.819130 -6.188557 7.412446 
1.756087 -0.055191 0.170150 4.112138 19.944779 -6.665609 -0.000000 0.000000 0.000000 -5.099561 -0.265693 1.005719 -0.168173 -0.678886 -0.371140 0.000000 0.000000 0.000000 0.235067 -1.079656 -1.285065 4.046884 -2.161554 -2.322029 -0.209681 -1.224910 -1.826707 -34.857776 -2.636212 -0.314689 -32.908990 4.594218 15.812294 0.705755 -5.367775 5.730228 0.044571 -0.985057 -0.072702 12.491547 6.661504 1.659634 60.813710 9.267745 -1.581610 0.513781 34.282749 -0.320669 0.000000 0.000000 -0.000000 -14.847835 10.640372 -3.772169 -1.721692 2.870187 19.751388 0.000000 0.000000 0.000000 -12.841783 2.141098 -10.479085 2.842268 -5.125028 9.096573 
